<?xml version="1.0" encoding="UTF-8"?>
<!DOCTYPE svg PUBLIC "-//W3C//DTD SVG 1.1//EN" "http://www.w3.org/Graphics/SVG/1.1/DTD/svg11.dtd">
<!-- Creator: CorelDRAW -->
<svg xmlns="http://www.w3.org/2000/svg" xml:space="preserve" width="2127.03mm" height="430.534mm" version="1.1" style="shape-rendering:geometricPrecision; text-rendering:geometricPrecision; image-rendering:optimizeQuality; fill-rule:evenodd; clip-rule:evenodd"
viewBox="0 0 157932.63 31967.27"
 xmlns:xlink="http://www.w3.org/1999/xlink"
 xmlns:xodm="http://www.corel.com/coreldraw/odm/2003">
 <defs>
  <style type="text/css">
   <![CDATA[
    .fil2 {fill:#E42127;fill-rule:nonzero}
    .fil0 {fill:#B2B1B3;fill-rule:nonzero}
    .fil1 {fill:#149F47;fill-rule:nonzero}
   ]]>
  </style>
 </defs>
 <g id="Katman_x0020_1">
  <metadata id="CorelCorpID_0Corel-Layer"/>
  <g id="_2064221472240">
   <polygon class="fil0" points="111420.11,19723.23 111524.37,19723.23 111524.37,13192.86 111420.11,13192.86 "/>
   <polygon class="fil1" points="112110.85,16549.91 112110.85,18165.11 110833.37,18165.11 110833.37,16549.91 "/>
   <polygon class="fil0" points="105108.45,14196.14 105212.7,14196.14 105212.7,6985.67 105108.45,6985.67 "/>
   <polygon class="fil1" points="105799.18,10342.72 105799.18,12638.02 104521.71,12638.02 104521.71,10342.72 "/>
   <polygon class="fil0" points="109316.23,18627.86 109420.48,18627.86 109420.48,7757.99 109316.23,7757.99 "/>
   <polygon class="fil1" points="110007.22,10757.84 110007.22,16076.32 108729.49,16076.32 108729.49,10757.84 "/>
   <polygon class="fil0" points="98848.92,18939.1 98953.43,18939.1 98953.43,4758.14 98848.92,4758.14 "/>
   <polygon class="fil1" points="99539.91,7757.99 99539.91,16387.7 98262.44,16387.7 98262.44,7757.99 "/>
   <polygon class="fil0" points="60874.8,24703.39 60979.18,24703.39 60979.18,10522.43 60874.8,10522.43 "/>
   <polygon class="fil1" points="61565.74,13522.15 61565.74,22151.85 60288.24,22151.85 60288.24,13522.15 "/>
   <polygon class="fil0" points="96699.45,19089.92 96803.96,19089.92 96803.96,9447.07 96699.45,9447.07 "/>
   <polygon class="fil1" points="97390.44,12446.92 97390.44,16538.38 96112.97,16538.38 96112.97,12446.92 "/>
   <polygon class="fil0" points="94536.89,15556.63 94641.15,15556.63 94641.15,8903.62 94536.89,8903.62 "/>
   <polygon class="fil1" points="95227.89,11674.18 95227.89,13793.94 93950.15,13793.94 93950.15,11674.18 "/>
   <polygon class="fil0" points="92433,14573.76 92537.26,14573.76 92537.26,9096.53 92433,9096.53 "/>
   <polygon class="fil1" points="93124,11866.95 93124,12810.93 91846.26,12810.93 91846.26,11866.95 "/>
   <polygon class="fil0" points="67245.27,25719.6 67349.67,25719.6 67349.67,16076.61 67245.27,16076.61 "/>
   <polygon class="fil1" points="67936.29,19076.45 67936.29,23168.06 66658.71,23168.06 66658.71,19076.45 "/>
   <polygon class="fil0" points="65082.55,22186.3 65186.96,22186.3 65186.96,15533.15 65082.55,15533.15 "/>
   <polygon class="fil1" points="65773.46,18303.71 65773.46,20423.47 64495.96,20423.47 64495.96,18303.71 "/>
   <polygon class="fil0" points="62978.66,21203.29 63083.02,21203.29 63083.02,15726.06 62978.66,15726.06 "/>
   <polygon class="fil1" points="63669.63,18496.62 63669.63,19440.6 62392.1,19440.6 62392.1,18496.62 "/>
   <polygon class="fil0" points="77705.79,22442.68 77810.31,22442.68 77810.31,16848.23 77705.79,16848.23 "/>
   <polygon class="fil1" points="78396.79,18560.09 78396.79,20679.85 77119.31,20679.85 77119.31,18560.09 "/>
   <polygon class="fil0" points="75601.91,21459.66 75706.42,21459.66 75706.42,15982.44 75601.91,15982.44 "/>
   <polygon class="fil1" points="76292.9,18753 76292.9,19696.98 75015.43,19696.98 75015.43,18753 "/>
   <polygon class="fil0" points="86121.35,18610.92 86225.59,18610.92 86225.59,13133.69 86121.35,13133.69 "/>
   <polygon class="fil1" points="86812.33,15904.25 86812.33,16848.23 85534.6,16848.23 85534.6,15904.25 "/>
   <polygon class="fil0" points="107233.03,19595.6 107337.55,19595.6 107337.55,10095.37 107233.03,10095.37 "/>
   <polygon class="fil1" points="107924.03,13095.08 107924.03,17044.19 106646.55,17044.19 106646.55,13095.08 "/>
   <polygon class="fil0" points="58875.32,18378.44 58979.7,18378.44 58979.7,11848.06 58875.32,11848.06 "/>
   <polygon class="fil1" points="59566.31,15205.12 59566.31,16820.31 58288.79,16820.31 58288.79,15205.12 "/>
   <polygon class="fil0" points="52563.71,12851.35 52668.12,12851.35 52668.12,6096.27 52563.71,6096.27 "/>
   <polygon class="fil1" points="53254.65,7491.06 53254.65,11293.09 51977.15,11293.09 51977.15,7491.06 "/>
   <polygon class="fil0" points="56771.49,17283.07 56875.84,17283.07 56875.84,8550.04 56771.49,8550.04 "/>
   <polygon class="fil1" points="57462.43,10276.06 57462.43,14731.53 56184.87,14731.53 56184.87,10276.06 "/>
   <polygon class="fil0" points="46252.05,10368.42 46356.43,10368.42 46356.43,4891.19 46252.05,4891.19 "/>
   <polygon class="fil1" points="46943.02,7661.74 46943.02,8605.72 45665.46,8605.72 45665.46,7661.74 "/>
   <polygon class="fil0" points="54688.53,18250.8 54792.91,18250.8 54792.91,8750.58 54688.53,8750.58 "/>
   <polygon class="fil1" points="55379.52,11750.29 55379.52,15699.4 54101.94,15699.4 54101.94,11750.29 "/>
   <polygon class="fil0" points="115627.63,18845.36 115732.14,18845.36 115732.14,11441.55 115627.63,11441.55 "/>
   <polygon class="fil2" points="116318.62,13270.77 116318.62,17287.1 115041.15,17287.1 115041.15,13270.77 "/>
   <polygon class="fil0" points="103014.78,17824.43 103119.29,17824.43 103119.29,11322.95 103014.78,11322.95 "/>
   <polygon class="fil2" points="103705.77,13152.02 103705.77,15143.45 102428.3,15143.45 102428.3,13152.02 "/>
   <polygon class="fil0" points="90394.08,16995.17 90498.59,16995.17 90498.59,10493.68 90394.08,10493.68 "/>
   <polygon class="fil2" points="91085.07,12322.76 91085.07,14314.19 89807.6,14314.19 89807.6,12322.76 "/>
   <polygon class="fil0" points="84121.71,21242.87 84226.22,21242.87 84226.22,14741.53 84121.71,14741.53 "/>
   <polygon class="fil2" points="84812.7,16570.61 84812.7,18561.89 83535.23,18561.89 83535.23,16570.61 "/>
   <polygon class="fil0" points="100848.29,19038.82 100952.81,19038.82 100952.81,12623.99 100848.29,12623.99 "/>
   <polygon class="fil2" points="101539.29,14453.07 101539.29,18165.11 100261.81,18165.11 100261.81,14453.07 "/>
   <polygon class="fil0" points="82009.18,21646.05 82113.42,21646.05 82113.42,15144.71 82009.18,15144.71 "/>
   <polygon class="fil2" points="82700.17,16973.78 82700.17,18965.07 81422.44,18965.07 81422.44,16973.78 "/>
   <polygon class="fil0" points="79842.68,22860.57 79946.94,22860.57 79946.94,16784.9 79842.68,16784.9 "/>
   <polygon class="fil2" points="80533.68,18274.69 80533.68,21986.73 79256.2,21986.73 79256.2,18274.69 "/>
   <polygon class="fil0" points="50522.37,12107.35 50626.76,12107.35 50626.76,5605.87 50522.37,5605.87 "/>
   <polygon class="fil2" points="51213.34,7434.95 51213.34,9426.38 49935.84,9426.38 49935.84,7434.95 "/>
   <polygon class="fil0" points="48355.96,13321.74 48460.34,13321.74 48460.34,7246.07 48355.96,7246.07 "/>
   <polygon class="fil2" points="49046.93,8735.99 49046.93,12447.9 47769.4,12447.9 47769.4,8735.99 "/>
   <polygon class="fil0" points="113523.74,22215.19 113628.26,22215.19 113628.26,12567.33 113523.74,12567.33 "/>
   <polygon class="fil2" points="114214.74,14991.93 114214.74,20656.93 112937.26,20656.93 112937.26,14991.93 "/>
   <polygon class="fil0" points="73602.53,22425.18 73706.78,22425.18 73706.78,16397.7 73602.53,16397.7 "/>
   <polygon class="fil2" points="74293.26,18226.77 74293.26,20867.06 73015.79,20867.06 73015.79,18226.77 "/>
   <polygon class="fil0" points="69342.37,25358.5 69446.88,25358.5 69446.88,22001.44 69342.37,22001.44 "/>
   <polygon class="fil2" points="70033.36,23339.71 70033.36,23800.39 68755.89,23800.39 68755.89,23339.71 "/>
   <polygon class="fil0" points="71498.65,25612.94 71602.89,25612.94 71602.89,17523.33 71498.65,17523.33 "/>
   <polygon class="fil2" points="72189.63,19947.94 72189.63,24054.68 70911.9,24054.68 70911.9,19947.94 "/>
   <polygon class="fil0" points="88282.33,21175.52 88386.84,21175.52 88386.84,11527.8 88282.33,11527.8 "/>
   <polygon class="fil2" points="88973.32,13952.4 88973.32,19617.4 87695.85,19617.4 87695.85,13952.4 "/>
   <polygon class="fil0" points="125683.43,30951.06 125787.81,30951.06 125787.81,16770.1 125683.43,16770.1 "/>
   <polygon class="fil1" points="126374.37,19769.82 126374.37,28399.52 125096.87,28399.52 125096.87,19769.82 "/>
   <polygon class="fil0" points="157241.64,20821.43 157345.89,20821.43 157345.89,15344.2 157241.64,15344.2 "/>
   <polygon class="fil1" points="157932.63,18114.62 157932.63,19058.61 156654.9,19058.61 156654.9,18114.62 "/>
   <polygon class="fil0" points="132053.9,31967.27 132158.3,31967.27 132158.3,22324.28 132053.9,22324.28 "/>
   <polygon class="fil1" points="132744.92,25324.13 132744.92,29415.73 131467.34,29415.73 131467.34,25324.13 "/>
   <polygon class="fil0" points="129891.18,28433.97 129995.59,28433.97 129995.59,21780.82 129891.18,21780.82 "/>
   <polygon class="fil1" points="130582.09,24551.38 130582.09,26671.14 129304.59,26671.14 129304.59,24551.38 "/>
   <polygon class="fil0" points="127787.29,27450.96 127891.65,27450.96 127891.65,21973.73 127787.29,21973.73 "/>
   <polygon class="fil1" points="128478.26,24744.29 128478.26,25688.27 127200.73,25688.27 127200.73,24744.29 "/>
   <polygon class="fil0" points="142514.42,28690.35 142618.94,28690.35 142618.94,23095.9 142514.42,23095.9 "/>
   <polygon class="fil1" points="143205.42,24807.76 143205.42,26927.52 141927.94,26927.52 141927.94,24807.76 "/>
   <polygon class="fil0" points="140410.54,27707.33 140515.05,27707.33 140515.05,22230.11 140410.54,22230.11 "/>
   <polygon class="fil1" points="141101.53,25000.67 141101.53,25944.65 139824.06,25944.65 139824.06,25000.67 "/>
   <polygon class="fil0" points="150929.98,24858.59 151034.22,24858.59 151034.22,19381.36 150929.98,19381.36 "/>
   <polygon class="fil1" points="151620.96,22151.92 151620.96,23095.9 150343.23,23095.9 150343.23,22151.92 "/>
   <polygon class="fil0" points="123683.95,24626.11 123788.33,24626.11 123788.33,18095.73 123683.95,18095.73 "/>
   <polygon class="fil1" points="124374.95,21452.79 124374.95,23067.98 123097.42,23067.98 123097.42,21452.79 "/>
   <polygon class="fil0" points="117372.34,19099.02 117476.75,19099.02 117476.75,12343.94 117372.34,12343.94 "/>
   <polygon class="fil1" points="118063.28,13738.73 118063.28,17540.76 116785.78,17540.76 116785.78,13738.73 "/>
   <polygon class="fil0" points="121580.12,23530.74 121684.47,23530.74 121684.47,14797.71 121580.12,14797.71 "/>
   <polygon class="fil1" points="122271.06,16523.73 122271.06,20979.2 120993.5,20979.2 120993.5,16523.73 "/>
   <polygon class="fil0" points="119497.16,24498.47 119601.54,24498.47 119601.54,14998.25 119497.16,14998.25 "/>
   <polygon class="fil1" points="120188.15,17997.96 120188.15,21947.07 118910.57,21947.07 118910.57,17997.96 "/>
   <polygon class="fil0" points="155202.71,23242.84 155307.22,23242.84 155307.22,16741.35 155202.71,16741.35 "/>
   <polygon class="fil2" points="155893.7,18570.43 155893.7,20561.86 154616.23,20561.86 154616.23,18570.43 "/>
   <polygon class="fil0" points="148930.34,27490.55 149034.85,27490.55 149034.85,20989.2 148930.34,20989.2 "/>
   <polygon class="fil2" points="149621.33,22818.28 149621.33,24809.56 148343.86,24809.56 148343.86,22818.28 "/>
   <polygon class="fil0" points="146817.81,27893.72 146922.05,27893.72 146922.05,21392.38 146817.81,21392.38 "/>
   <polygon class="fil2" points="147508.8,23221.45 147508.8,25212.74 146231.07,25212.74 146231.07,23221.45 "/>
   <polygon class="fil0" points="144651.31,29108.24 144755.57,29108.24 144755.57,23032.57 144651.31,23032.57 "/>
   <polygon class="fil2" points="145342.31,24522.36 145342.31,28234.4 144064.83,28234.4 144064.83,24522.36 "/>
   <polygon class="fil0" points="138411.16,28672.85 138515.41,28672.85 138515.41,22645.37 138411.16,22645.37 "/>
   <polygon class="fil2" points="139101.89,24474.44 139101.89,27114.73 137824.42,27114.73 137824.42,24474.44 "/>
   <polygon class="fil0" points="134151,31606.17 134255.51,31606.17 134255.51,28249.12 134151,28249.12 "/>
   <polygon class="fil2" points="134841.99,29587.39 134841.99,30048.06 133564.52,30048.06 133564.52,29587.39 "/>
   <polygon class="fil0" points="136307.28,31860.61 136411.52,31860.61 136411.52,23771 136307.28,23771 "/>
   <polygon class="fil2" points="136998.26,26195.61 136998.26,30302.35 135720.53,30302.35 135720.53,26195.61 "/>
   <polygon class="fil0" points="153090.96,27423.19 153195.47,27423.19 153195.47,17775.47 153090.96,17775.47 "/>
   <polygon class="fil2" points="153781.95,20200.08 153781.95,25865.07 152504.48,25865.07 152504.48,20200.08 "/>
   <polygon class="fil0" points="2690.37,7403.81 2794.88,7403.81 2794.88,0 2690.37,0 "/>
   <polygon class="fil2" points="3381.36,1829.22 3381.36,5845.55 2103.89,5845.55 2103.89,1829.22 "/>
   <polygon class="fil0" points="586.48,10773.64 690.99,10773.64 690.99,1125.78 586.48,1125.78 "/>
   <polygon class="fil2" points="1277.47,3550.38 1277.47,9215.38 -0,9215.38 -0,3550.38 "/>
   <polygon class="fil0" points="12746.17,19509.51 12850.55,19509.51 12850.55,5328.55 12746.17,5328.55 "/>
   <polygon class="fil1" points="13437.11,8328.26 13437.11,16957.97 12159.61,16957.97 12159.61,8328.26 "/>
   <polygon class="fil0" points="44304.37,9379.88 44408.63,9379.88 44408.63,3902.65 44304.37,3902.65 "/>
   <polygon class="fil1" points="44995.37,6673.06 44995.37,7617.05 43717.63,7617.05 43717.63,6673.06 "/>
   <polygon class="fil0" points="19116.64,20525.71 19221.04,20525.71 19221.04,10882.72 19116.64,10882.72 "/>
   <polygon class="fil1" points="19807.66,13882.57 19807.66,17974.17 18530.08,17974.17 18530.08,13882.57 "/>
   <polygon class="fil0" points="16953.92,16992.42 17058.33,16992.42 17058.33,10339.27 16953.92,10339.27 "/>
   <polygon class="fil1" points="17644.83,13109.83 17644.83,15229.59 16367.33,15229.59 16367.33,13109.83 "/>
   <polygon class="fil0" points="14850.03,16009.41 14954.39,16009.41 14954.39,10532.18 14850.03,10532.18 "/>
   <polygon class="fil1" points="15540.99,13302.74 15540.99,14246.72 14263.47,14246.72 14263.47,13302.74 "/>
   <polygon class="fil0" points="29577.16,17248.79 29681.68,17248.79 29681.68,11654.35 29577.16,11654.35 "/>
   <polygon class="fil1" points="30268.16,13366.21 30268.16,15485.97 28990.68,15485.97 28990.68,13366.21 "/>
   <polygon class="fil0" points="27473.27,16265.78 27577.79,16265.78 27577.79,10788.56 27473.27,10788.56 "/>
   <polygon class="fil1" points="28164.27,13559.12 28164.27,14503.1 26886.79,14503.1 26886.79,13559.12 "/>
   <polygon class="fil0" points="37992.71,13417.04 38096.96,13417.04 38096.96,7939.81 37992.71,7939.81 "/>
   <polygon class="fil1" points="38683.7,10710.37 38683.7,11654.35 37405.97,11654.35 37405.97,10710.37 "/>
   <polygon class="fil0" points="10746.69,13184.55 10851.07,13184.55 10851.07,6654.18 10746.69,6654.18 "/>
   <polygon class="fil1" points="11437.68,10011.23 11437.68,11626.43 10160.16,11626.43 10160.16,10011.23 "/>
   <polygon class="fil0" points="4435.08,7657.47 4539.49,7657.47 4539.49,902.38 4435.08,902.38 "/>
   <polygon class="fil1" points="5126.02,2297.17 5126.02,6099.21 3848.52,6099.21 3848.52,2297.17 "/>
   <polygon class="fil0" points="8642.86,12089.19 8747.21,12089.19 8747.21,3356.15 8642.86,3356.15 "/>
   <polygon class="fil1" points="9333.8,5082.17 9333.8,9537.64 8056.24,9537.64 8056.24,5082.17 "/>
   <polygon class="fil0" points="6559.9,13056.92 6664.28,13056.92 6664.28,3556.7 6559.9,3556.7 "/>
   <polygon class="fil1" points="7250.89,6556.41 7250.89,10505.52 5973.31,10505.52 5973.31,6556.41 "/>
   <polygon class="fil0" points="42265.45,11801.29 42369.96,11801.29 42369.96,5299.8 42265.45,5299.8 "/>
   <polygon class="fil2" points="42956.44,7128.88 42956.44,9120.31 41678.97,9120.31 41678.97,7128.88 "/>
   <polygon class="fil0" points="35993.08,16048.99 36097.59,16048.99 36097.59,9547.65 35993.08,9547.65 "/>
   <polygon class="fil2" points="36684.07,11376.73 36684.07,13368.01 35406.6,13368.01 35406.6,11376.73 "/>
   <polygon class="fil0" points="33880.55,16452.16 33984.79,16452.16 33984.79,9950.82 33880.55,9950.82 "/>
   <polygon class="fil2" points="34571.54,11779.9 34571.54,13771.19 33293.81,13771.19 33293.81,11779.9 "/>
   <polygon class="fil0" points="31714.05,17666.69 31818.31,17666.69 31818.31,11591.02 31714.05,11591.02 "/>
   <polygon class="fil2" points="32405.05,13080.8 32405.05,16792.85 31127.57,16792.85 31127.57,13080.8 "/>
   <polygon class="fil0" points="25473.9,17231.29 25578.15,17231.29 25578.15,11203.82 25473.9,11203.82 "/>
   <polygon class="fil2" points="26164.63,13032.89 26164.63,15673.18 24887.16,15673.18 24887.16,13032.89 "/>
   <polygon class="fil0" points="21213.74,20164.62 21318.25,20164.62 21318.25,16807.56 21213.74,16807.56 "/>
   <polygon class="fil2" points="21904.73,18145.83 21904.73,18606.5 20627.26,18606.5 20627.26,18145.83 "/>
   <polygon class="fil0" points="23370.02,20419.05 23474.26,20419.05 23474.26,12329.45 23370.02,12329.45 "/>
   <polygon class="fil2" points="24061,14754.05 24061,18860.8 22783.27,18860.8 22783.27,14754.05 "/>
   <polygon class="fil0" points="40153.7,15981.63 40258.21,15981.63 40258.21,6333.92 40153.7,6333.92 "/>
   <polygon class="fil2" points="40844.69,8758.52 40844.69,14423.51 39567.22,14423.51 39567.22,8758.52 "/>
  </g>
 </g>
</svg>
